<svg width="855" height="895" viewBox="0 0 855 895" fill="none" xmlns="http://www.w3.org/2000/svg">
<path d="M114.559 216.388C160.779 90.1165 281.997 0 424.258 0C566.52 0 687.737 90.1165 733.957 216.388H707.071C662.103 104.275 552.425 25.1038 424.258 25.1038C296.091 25.1038 186.413 104.275 141.446 216.388H114.559Z" fill="#081F3E"/>
<path d="M125.95 470.368C164.119 551.229 234.188 614.072 319.918 642.656H528.598C614.329 614.072 684.397 551.229 722.567 470.368H694.544C658.913 538.741 598.107 591.902 524.42 617.552H324.096C250.41 591.902 189.604 538.741 153.973 470.368H125.95Z" fill="#081F3E"/>
<path d="M736.172 453.493V289.177H781.737V453.493H736.172Z" fill="#081F3E"/>
<path d="M759.062 267.996C752.287 267.996 746.476 265.749 741.627 261.256C736.85 256.692 734.461 251.236 734.461 244.889C734.461 238.613 736.85 233.228 741.627 228.735C746.476 224.171 752.287 221.889 759.062 221.889C765.836 221.889 771.611 224.171 776.389 228.735C781.238 233.228 783.662 238.613 783.662 244.889C783.662 251.236 781.238 256.692 776.389 261.256C771.611 265.749 765.836 267.996 759.062 267.996Z" fill="#081F3E"/>
<path d="M518.539 234.405H461.423V453.492H506.346V310.358H508.164L564.852 452.423H595.442L652.13 310.893H653.948V453.492H698.871V234.405H641.755L581.431 381.604H578.863L518.539 234.405Z" fill="#081F3E"/>
<path fill-rule="evenodd" clip-rule="evenodd" d="M332.698 456.595C322.216 456.595 312.875 454.776 304.675 451.139C296.475 447.431 289.986 441.975 285.209 434.772C280.503 427.497 278.149 418.44 278.149 407.6C278.149 398.471 279.825 390.804 283.177 384.6C286.528 378.395 291.091 373.403 296.867 369.623C302.643 365.843 309.203 362.991 316.548 361.065C323.963 359.139 331.736 357.784 339.864 357C349.419 356.001 357.12 355.074 362.967 354.219C368.815 353.291 373.057 351.936 375.696 350.153C378.334 348.371 379.653 345.732 379.653 342.237V341.595C379.653 334.82 377.514 329.578 373.235 325.87C369.028 322.161 363.039 320.307 355.266 320.307C347.066 320.307 340.542 322.126 335.693 325.763C330.844 329.329 327.636 333.822 326.067 339.242L283.925 335.819C286.064 325.834 290.271 317.205 296.546 309.93C302.821 302.585 310.914 296.951 320.826 293.028C330.809 289.034 342.36 287.037 355.48 287.037C364.607 287.037 373.342 288.107 381.685 290.247C390.099 292.386 397.551 295.703 404.039 300.196C410.6 304.689 415.769 310.465 419.548 317.526C423.328 324.515 425.217 332.895 425.217 342.665V453.492H382.006V430.707H380.723C378.084 435.841 374.555 440.37 370.134 444.293C365.713 448.144 360.4 451.175 354.197 453.386C347.993 455.525 340.827 456.595 332.698 456.595ZM345.747 425.144C352.45 425.144 358.368 423.824 363.502 421.186C368.636 418.476 372.665 414.838 375.589 410.274C378.512 405.71 379.974 400.539 379.974 394.763V377.325C378.548 378.253 376.587 379.108 374.091 379.893C371.667 380.606 368.921 381.284 365.855 381.925C362.789 382.496 359.723 383.031 356.657 383.53C353.591 383.958 350.81 384.35 348.314 384.707C342.966 385.491 338.296 386.739 334.303 388.451C330.309 390.163 327.208 392.48 324.997 395.404C322.787 398.257 321.681 401.823 321.681 406.102C321.681 412.307 323.928 417.049 328.42 420.33C332.983 423.539 338.759 425.144 345.747 425.144Z" fill="#081F3E"/>
<path d="M248.442 453.492V234.405H202.343V372.19H200.418L105.867 234.405H65.2223V453.492H111.535V315.6H113.14L208.44 453.492H248.442Z" fill="#081F3E"/>
<path d="M58.5547 707.511V777.528H45.7705L15.3138 733.46H14.8011V777.528H0V707.511H12.9894L43.2068 751.545H43.8221V707.511H58.5547Z" fill="#081F3E"/>
<path d="M85.4821 778.52C82.1322 778.52 79.1469 777.939 76.5262 776.776C73.9056 775.591 71.8318 773.848 70.305 771.546C68.801 769.221 68.049 766.326 68.049 762.862C68.049 759.944 68.5845 757.494 69.6555 755.511C70.7266 753.528 72.185 751.933 74.0309 750.725C75.8768 749.517 77.9733 748.605 80.3205 747.99C82.6905 747.374 85.1744 746.941 87.7723 746.691C90.8259 746.372 93.2871 746.075 95.1557 745.802C97.0244 745.505 98.3803 745.072 99.2234 744.503C100.067 743.933 100.488 743.089 100.488 741.973V741.768C100.488 739.602 99.8046 737.927 98.4373 736.742C97.0927 735.557 95.1785 734.964 92.6946 734.964C90.0739 734.964 87.9888 735.545 86.4392 736.708C84.8896 737.847 83.8641 739.283 83.3627 741.015L69.8948 739.921C70.5785 736.73 71.923 733.973 73.9284 731.648C75.9337 729.3 78.5202 727.5 81.6878 726.246C84.8782 724.97 88.5699 724.331 92.7629 724.331C95.6799 724.331 98.4714 724.673 101.138 725.357C103.827 726.041 106.208 727.101 108.282 728.537C110.378 729.973 112.031 731.819 113.238 734.075C114.446 736.309 115.05 738.987 115.05 742.109V777.528H101.24V770.246H100.83C99.9869 771.887 98.8588 773.335 97.446 774.588C96.0331 775.819 94.3353 776.788 92.3528 777.494C90.3702 778.178 88.0799 778.52 85.4821 778.52ZM89.6523 768.469C91.7944 768.469 93.6859 768.047 95.3266 767.204C96.9674 766.337 98.2549 765.175 99.1893 763.716C100.124 762.258 100.591 760.605 100.591 758.759V753.186C100.135 753.483 99.5083 753.756 98.7107 754.007C97.9359 754.235 97.0586 754.451 96.0787 754.656C95.0988 754.839 94.1189 755.01 93.139 755.169C92.1591 755.306 91.2703 755.431 90.4727 755.545C88.7636 755.796 87.2709 756.195 85.9948 756.742C84.7186 757.289 83.7274 758.03 83.0209 758.964C82.3145 759.876 81.9613 761.016 81.9613 762.383C81.9613 764.366 82.6791 765.882 84.1148 766.93C85.5732 767.956 87.4191 768.469 89.6523 768.469Z" fill="#081F3E"/>
<path d="M140.909 747.169V777.528H126.347V725.015H140.225V734.28H140.841C142.003 731.226 143.951 728.81 146.686 727.032C149.421 725.232 152.736 724.331 156.633 724.331C160.279 724.331 163.458 725.129 166.17 726.725C168.882 728.32 170.99 730.599 172.494 733.562C173.998 736.503 174.75 740.013 174.75 744.092V777.528H160.188V746.691C160.211 743.477 159.39 740.97 157.727 739.169C156.063 737.346 153.773 736.434 150.856 736.434C148.896 736.434 147.165 736.856 145.66 737.699C144.179 738.542 143.017 739.773 142.174 741.391C141.353 742.987 140.932 744.913 140.909 747.169Z" fill="#081F3E"/>
<path d="M209.949 778.554C204.64 778.554 200.048 777.426 196.174 775.169C192.323 772.89 189.349 769.722 187.252 765.665C185.156 761.585 184.107 756.856 184.107 751.477C184.107 746.052 185.156 741.312 187.252 737.255C189.349 733.175 192.323 730.007 196.174 727.75C200.048 725.471 204.64 724.331 209.949 724.331C215.259 724.331 219.839 725.471 223.691 727.75C227.565 730.007 230.55 733.175 232.647 737.255C234.743 741.312 235.791 746.052 235.791 751.477C235.791 756.856 234.743 761.585 232.647 765.665C230.55 769.722 227.565 772.89 223.691 775.169C219.839 777.426 215.259 778.554 209.949 778.554ZM210.018 767.272C212.433 767.272 214.45 766.588 216.068 765.221C217.686 763.83 218.905 761.939 219.726 759.545C220.569 757.152 220.99 754.429 220.99 751.374C220.99 748.32 220.569 745.597 219.726 743.203C218.905 740.81 217.686 738.918 216.068 737.528C214.45 736.138 212.433 735.443 210.018 735.443C207.579 735.443 205.528 736.138 203.865 737.528C202.224 738.918 200.982 740.81 200.139 743.203C199.319 745.597 198.908 748.32 198.908 751.374C198.908 754.429 199.319 757.152 200.139 759.545C200.982 761.939 202.224 763.83 203.865 765.221C205.528 766.588 207.579 767.272 210.018 767.272Z" fill="#081F3E"/>
<path d="M269.188 778.554C263.787 778.554 259.138 777.46 255.241 775.272C251.367 773.061 248.382 769.939 246.285 765.904C244.189 761.847 243.141 757.05 243.141 751.511C243.141 746.109 244.189 741.369 246.285 737.289C248.382 733.209 251.333 730.03 255.139 727.75C258.967 725.471 263.456 724.331 268.607 724.331C272.07 724.331 275.295 724.89 278.28 726.007C281.288 727.101 283.909 728.753 286.142 730.964C288.398 733.175 290.153 735.956 291.406 739.306C292.66 742.634 293.286 746.531 293.286 750.998V754.998H248.952V745.973H279.579C279.579 743.876 279.123 742.018 278.212 740.4C277.3 738.782 276.036 737.517 274.418 736.605C272.822 735.671 270.965 735.203 268.846 735.203C266.635 735.203 264.676 735.716 262.966 736.742C261.28 737.745 259.958 739.101 259.001 740.81C258.044 742.497 257.554 744.377 257.531 746.451V755.033C257.531 757.631 258.01 759.876 258.967 761.768C259.947 763.659 261.326 765.118 263.103 766.144C264.881 767.169 266.989 767.682 269.427 767.682C271.045 767.682 272.526 767.454 273.871 766.998C275.215 766.543 276.366 765.859 277.323 764.947C278.28 764.035 279.01 762.919 279.511 761.597L292.979 762.486C292.295 765.722 290.894 768.548 288.774 770.964C286.678 773.357 283.966 775.226 280.639 776.571C277.335 777.893 273.518 778.554 269.188 778.554Z" fill="#081F3E"/>
<path d="M317.351 707.511V777.528H302.789V707.511H317.351Z" fill="#081F3E"/>
<path d="M352.944 778.554C347.543 778.554 342.894 777.46 338.997 775.272C335.123 773.061 332.138 769.939 330.041 765.904C327.945 761.847 326.896 757.05 326.896 751.511C326.896 746.109 327.945 741.369 330.041 737.289C332.138 733.209 335.089 730.03 338.895 727.75C342.723 725.471 347.212 724.331 352.362 724.331C355.826 724.331 359.051 724.89 362.036 726.007C365.044 727.101 367.665 728.753 369.898 730.964C372.154 733.175 373.909 735.956 375.162 739.306C376.416 742.634 377.042 746.531 377.042 750.998V754.998H332.707V745.973H363.335C363.335 743.876 362.879 742.018 361.968 740.4C361.056 738.782 359.791 737.517 358.173 736.605C356.578 735.671 354.721 735.203 352.602 735.203C350.391 735.203 348.431 735.716 346.722 736.742C345.036 737.745 343.714 739.101 342.757 740.81C341.8 742.497 341.31 744.377 341.287 746.451V755.033C341.287 757.631 341.766 759.876 342.723 761.768C343.703 763.659 345.082 765.118 346.859 766.144C348.637 767.169 350.744 767.682 353.183 767.682C354.801 767.682 356.282 767.454 357.627 766.998C358.971 766.543 360.122 765.859 361.079 764.947C362.036 764.035 362.765 762.919 363.267 761.597L376.735 762.486C376.051 765.722 374.65 768.548 372.53 770.964C370.434 773.357 367.722 775.226 364.395 776.571C361.09 777.893 357.273 778.554 352.944 778.554Z" fill="#081F3E"/>
<path d="M399.74 762.417L399.774 744.947H401.893L418.711 725.015H435.426L412.831 751.409H409.379L399.74 762.417ZM386.545 777.528V707.511H401.107V777.528H386.545ZM419.36 777.528L403.91 754.656L413.618 744.366L436.417 777.528H419.36Z" fill="#081F3E"/>
<path d="M470.497 725.015V735.956H438.879V725.015H470.497ZM446.057 712.434H460.619V761.392C460.619 762.736 460.824 763.785 461.234 764.537C461.644 765.266 462.214 765.779 462.943 766.075C463.695 766.372 464.561 766.52 465.541 766.52C466.225 766.52 466.908 766.463 467.592 766.349C468.276 766.212 468.8 766.11 469.164 766.041L471.455 776.879C470.725 777.107 469.7 777.369 468.378 777.665C467.056 777.984 465.45 778.178 463.558 778.246C460.049 778.383 456.973 777.916 454.329 776.845C451.708 775.773 449.669 774.11 448.21 771.853C446.752 769.597 446.034 766.748 446.057 763.306V712.434Z" fill="#081F3E"/>
<path d="M479.983 777.528V725.015H494.1V734.178H494.647C495.605 730.918 497.211 728.457 499.467 726.793C501.723 725.106 504.321 724.263 507.261 724.263C507.99 724.263 508.776 724.309 509.619 724.4C510.463 724.491 511.203 724.616 511.841 724.776V737.699C511.158 737.494 510.212 737.312 509.004 737.152C507.796 736.993 506.691 736.913 505.688 736.913C503.546 736.913 501.632 737.38 499.946 738.315C498.282 739.226 496.96 740.503 495.98 742.144C495.023 743.785 494.545 745.676 494.545 747.819V777.528H479.983Z" fill="#081F3E"/>
<path d="M540.649 778.554C535.339 778.554 530.747 777.426 526.873 775.169C523.022 772.89 520.048 769.722 517.951 765.665C515.855 761.585 514.807 756.856 514.807 751.477C514.807 746.052 515.855 741.312 517.951 737.255C520.048 733.175 523.022 730.007 526.873 727.75C530.747 725.471 535.339 724.331 540.649 724.331C545.958 724.331 550.539 725.471 554.39 727.75C558.264 730.007 561.249 733.175 563.346 737.255C565.442 741.312 566.491 746.052 566.491 751.477C566.491 756.856 565.442 761.585 563.346 765.665C561.249 769.722 558.264 772.89 554.39 775.169C550.539 777.426 545.958 778.554 540.649 778.554ZM540.717 767.272C543.133 767.272 545.149 766.588 546.767 765.221C548.385 763.83 549.604 761.939 550.425 759.545C551.268 757.152 551.69 754.429 551.69 751.374C551.69 748.32 551.268 745.597 550.425 743.203C549.604 740.81 548.385 738.918 546.767 737.528C545.149 736.138 543.133 735.443 540.717 735.443C538.279 735.443 536.228 736.138 534.564 737.528C532.923 738.918 531.681 740.81 530.838 743.203C530.018 745.597 529.608 748.32 529.608 751.374C529.608 754.429 530.018 757.152 530.838 759.545C531.681 761.939 532.923 763.83 534.564 765.221C536.228 766.588 538.279 767.272 540.717 767.272Z" fill="#081F3E"/>
<path d="M590.521 747.169V777.528H575.959V725.015H589.837V734.28H590.453C591.615 731.226 593.563 728.81 596.298 727.032C599.032 725.232 602.348 724.331 606.245 724.331C609.891 724.331 613.07 725.129 615.782 726.725C618.494 728.32 620.602 730.599 622.106 733.562C623.61 736.503 624.362 740.013 624.362 744.092V777.528H609.8V746.691C609.823 743.477 609.002 740.97 607.339 739.169C605.675 737.346 603.385 736.434 600.468 736.434C598.508 736.434 596.776 736.856 595.272 737.699C593.791 738.542 592.629 739.773 591.786 741.391C590.965 742.987 590.544 744.913 590.521 747.169Z" fill="#081F3E"/>
<path d="M635.839 777.528V725.015H650.4V777.528H635.839ZM643.154 718.246C640.989 718.246 639.131 717.528 637.582 716.092C636.055 714.633 635.292 712.89 635.292 710.861C635.292 708.856 636.055 707.135 637.582 705.699C639.131 704.24 640.989 703.511 643.154 703.511C645.318 703.511 647.164 704.24 648.691 705.699C650.241 707.135 651.016 708.856 651.016 710.861C651.016 712.89 650.241 714.633 648.691 716.092C647.164 717.528 645.318 718.246 643.154 718.246Z" fill="#081F3E"/>
<path d="M675.26 762.417L675.294 744.947H677.413L694.231 725.015H710.946L688.352 751.409H684.899L675.26 762.417ZM662.065 777.528V707.511H676.627V777.528H662.065ZM694.88 777.528L679.43 754.656L689.138 744.366L711.937 777.528H694.88Z" fill="#081F3E"/>
<path d="M733.062 778.52C729.712 778.52 726.727 777.939 724.106 776.776C721.486 775.591 719.412 773.848 717.885 771.546C716.381 769.221 715.629 766.326 715.629 762.862C715.629 759.944 716.165 757.494 717.236 755.511C718.307 753.528 719.765 751.933 721.611 750.725C723.457 749.517 725.554 748.605 727.901 747.99C730.271 747.374 732.755 746.941 735.353 746.691C738.406 746.372 740.867 746.075 742.736 745.802C744.605 745.505 745.96 745.072 746.804 744.503C747.647 743.933 748.068 743.089 748.068 741.973V741.768C748.068 739.602 747.385 737.927 746.017 736.742C744.673 735.557 742.759 734.964 740.275 734.964C737.654 734.964 735.569 735.545 734.019 736.708C732.47 737.847 731.444 739.283 730.943 741.015L717.475 739.921C718.159 736.73 719.503 733.973 721.509 731.648C723.514 729.3 726.1 727.5 729.268 726.246C732.458 724.97 736.15 724.331 740.343 724.331C743.26 724.331 746.052 724.673 748.718 725.357C751.407 726.041 753.788 727.101 755.862 728.537C757.959 729.973 759.611 731.819 760.819 734.075C762.026 736.309 762.63 738.987 762.63 742.109V777.528H748.82V770.246H748.41C747.567 771.887 746.439 773.335 745.026 774.588C743.613 775.819 741.916 776.788 739.933 777.494C737.95 778.178 735.66 778.52 733.062 778.52ZM737.233 768.469C739.375 768.469 741.266 768.047 742.907 767.204C744.548 766.337 745.835 765.175 746.769 763.716C747.704 762.258 748.171 760.605 748.171 758.759V753.186C747.715 753.483 747.089 753.756 746.291 754.007C745.516 754.235 744.639 754.451 743.659 754.656C742.679 754.839 741.699 755.01 740.719 755.169C739.739 755.306 738.851 755.431 738.053 755.545C736.344 755.796 734.851 756.195 733.575 756.742C732.299 757.289 731.308 758.03 730.601 758.964C729.895 759.876 729.541 761.016 729.541 762.383C729.541 764.366 730.259 765.882 731.695 766.93C733.153 767.956 734.999 768.469 737.233 768.469Z" fill="#081F3E"/>
<path d="M817.673 778.554C812.842 778.554 808.671 777.688 805.162 775.956C801.652 774.224 798.952 771.876 797.061 768.913C795.192 765.927 794.258 762.6 794.258 758.93C794.258 756.195 794.805 753.768 795.898 751.648C796.992 749.528 798.519 747.58 800.479 745.802C802.439 744.001 804.717 742.212 807.315 740.434L820.886 731.511C822.641 730.394 823.928 729.22 824.748 727.99C825.569 726.736 825.979 725.38 825.979 723.921C825.979 722.531 825.421 721.243 824.304 720.058C823.187 718.873 821.604 718.292 819.553 718.314C818.185 718.314 817 718.622 815.998 719.237C814.995 719.83 814.209 720.616 813.639 721.596C813.092 722.554 812.819 723.625 812.819 724.81C812.819 726.269 813.229 727.75 814.049 729.255C814.87 730.759 815.964 732.354 817.331 734.041C818.698 735.705 820.191 737.505 821.809 739.443L855 777.528H839.823L812.135 746.691C810.312 744.617 808.489 742.451 806.666 740.195C804.866 737.916 803.362 735.5 802.154 732.947C800.946 730.371 800.342 727.579 800.342 724.571C800.342 721.175 801.128 718.121 802.701 715.408C804.296 712.696 806.529 710.554 809.401 708.981C812.272 707.385 815.622 706.588 819.45 706.588C823.188 706.588 826.412 707.351 829.124 708.878C831.858 710.383 833.955 712.388 835.413 714.896C836.895 717.38 837.635 720.115 837.635 723.101C837.635 726.406 836.815 729.403 835.174 732.092C833.556 734.759 831.277 737.152 828.338 739.272L814.049 749.562C812.112 750.976 810.677 752.423 809.742 753.904C808.831 755.363 808.375 756.765 808.375 758.11C808.375 759.773 808.785 761.266 809.606 762.588C810.426 763.91 811.588 764.959 813.092 765.733C814.596 766.486 816.362 766.862 818.391 766.862C820.852 766.862 823.279 766.303 825.671 765.187C828.087 764.047 830.275 762.44 832.234 760.366C834.217 758.269 835.801 755.785 836.986 752.913C838.171 750.041 838.763 746.862 838.763 743.374H850.83C850.83 747.659 850.363 751.523 849.428 754.964C848.494 758.383 847.195 761.369 845.531 763.922C843.868 766.451 841.965 768.526 839.823 770.144C839.139 770.577 838.478 770.987 837.84 771.375C837.202 771.762 836.541 772.172 835.858 772.605C833.26 774.702 830.354 776.218 827.141 777.152C823.951 778.087 820.795 778.554 817.673 778.554Z" fill="#081F3E"/>
<path d="M33.1827 823.957H51.4362L70.7152 871H71.5356L90.8145 823.957H109.068V893.974H94.7113V848.401H94.1303L76.0135 893.632H66.2373L48.1205 848.23H47.5394V893.974H33.1827V823.957Z" fill="#081F3E"/>
<path d="M120.989 893.974V841.461H135.551V893.974H120.989ZM128.304 834.692C126.139 834.692 124.282 833.974 122.733 832.538C121.206 831.079 120.442 829.336 120.442 827.307C120.442 825.302 121.206 823.581 122.733 822.145C124.282 820.686 126.139 819.957 128.304 819.957C130.469 819.957 132.315 820.686 133.842 822.145C135.391 823.581 136.166 825.302 136.166 827.307C136.166 829.336 135.391 831.079 133.842 832.538C132.315 833.974 130.469 834.692 128.304 834.692Z" fill="#081F3E"/>
<path d="M160.41 878.863L160.444 861.393H162.564L179.382 841.461H196.097L173.502 867.854H170.05L160.41 878.863ZM147.216 893.974V823.957H161.778V893.974H147.216ZM180.031 893.974L164.581 871.102L174.288 860.812L197.088 893.974H180.031Z" fill="#081F3E"/>
<path d="M203.241 893.974V841.461H217.358V850.624H217.905C218.862 847.364 220.469 844.903 222.725 843.239C224.981 841.552 227.579 840.709 230.519 840.709C231.248 840.709 232.034 840.755 232.877 840.846C233.72 840.937 234.461 841.062 235.099 841.222V854.145C234.416 853.94 233.47 853.758 232.262 853.598C231.054 853.438 229.949 853.359 228.946 853.359C226.804 853.359 224.89 853.826 223.204 854.76C221.54 855.672 220.218 856.948 219.238 858.589C218.281 860.231 217.803 862.122 217.803 864.265V893.974H203.241Z" fill="#081F3E"/>
<path d="M263.907 895C258.597 895 254.005 893.872 250.131 891.615C246.28 889.336 243.306 886.168 241.209 882.111C239.113 878.031 238.064 873.302 238.064 867.923C238.064 862.498 239.113 857.758 241.209 853.701C243.306 849.621 246.28 846.453 250.131 844.196C254.005 841.917 258.597 840.777 263.907 840.777C269.216 840.777 273.797 841.917 277.648 844.196C281.522 846.453 284.507 849.621 286.604 853.701C288.7 857.758 289.749 862.498 289.749 867.923C289.749 873.302 288.7 878.031 286.604 882.111C284.507 886.168 281.522 889.336 277.648 891.615C273.797 893.872 269.216 895 263.907 895ZM263.975 883.718C266.39 883.718 268.407 883.034 270.025 881.667C271.643 880.276 272.862 878.385 273.683 875.991C274.526 873.598 274.948 870.875 274.948 867.82C274.948 864.766 274.526 862.042 273.683 859.649C272.862 857.256 271.643 855.364 270.025 853.974C268.407 852.584 266.39 851.889 263.975 851.889C261.537 851.889 259.486 852.584 257.822 853.974C256.181 855.364 254.939 857.256 254.096 859.649C253.276 862.042 252.866 864.766 252.866 867.82C252.866 870.875 253.276 873.598 254.096 875.991C254.939 878.385 256.181 880.276 257.822 881.667C259.486 883.034 261.537 883.718 263.975 883.718Z" fill="#081F3E"/>
<path d="M323.145 895C317.744 895 313.095 893.906 309.198 891.718C305.324 889.507 302.339 886.385 300.243 882.35C298.146 878.293 297.098 873.496 297.098 867.957C297.098 862.555 298.146 857.815 300.243 853.735C302.339 849.655 305.29 846.475 309.096 844.196C312.924 841.917 317.414 840.777 322.564 840.777C326.028 840.777 329.252 841.336 332.237 842.453C335.246 843.547 337.866 845.199 340.099 847.41C342.356 849.621 344.11 852.401 345.364 855.752C346.617 859.08 347.244 862.977 347.244 867.444V871.444H302.909V862.419H333.536C333.536 860.322 333.081 858.464 332.169 856.846C331.258 855.228 329.993 853.963 328.375 853.051C326.78 852.117 324.922 851.649 322.803 851.649C320.593 851.649 318.633 852.162 316.924 853.188C315.237 854.191 313.916 855.547 312.958 857.256C312.001 858.943 311.511 860.823 311.489 862.897V871.478C311.489 874.077 311.967 876.322 312.924 878.214C313.904 880.105 315.283 881.564 317.06 882.59C318.838 883.615 320.946 884.128 323.384 884.128C325.002 884.128 326.483 883.9 327.828 883.444C329.172 882.989 330.323 882.305 331.28 881.393C332.237 880.481 332.967 879.365 333.468 878.043L346.936 878.932C346.252 882.168 344.851 884.994 342.732 887.41C340.635 889.803 337.923 891.672 334.596 893.017C331.292 894.339 327.475 895 323.145 895Z" fill="#081F3E"/>
<path d="M371.308 823.957V893.974H356.746V823.957H371.308Z" fill="#081F3E"/>
<path d="M406.901 895C401.5 895 396.851 893.906 392.954 891.718C389.08 889.507 386.095 886.385 383.998 882.35C381.902 878.293 380.854 873.496 380.854 867.957C380.854 862.555 381.902 857.815 383.998 853.735C386.095 849.655 389.046 846.475 392.852 844.196C396.68 841.917 401.169 840.777 406.32 840.777C409.783 840.777 413.008 841.336 415.993 842.453C419.001 843.547 421.622 845.199 423.855 847.41C426.111 849.621 427.866 852.401 429.119 855.752C430.373 859.08 430.999 862.977 430.999 867.444V871.444H386.665V862.419H417.292C417.292 860.322 416.836 858.464 415.925 856.846C415.013 855.228 413.749 853.963 412.131 853.051C410.535 852.117 408.678 851.649 406.559 851.649C404.348 851.649 402.389 852.162 400.68 853.188C398.993 854.191 397.671 855.547 396.714 857.256C395.757 858.943 395.267 860.823 395.244 862.897V871.478C395.244 874.077 395.723 876.322 396.68 878.214C397.66 880.105 399.039 881.564 400.816 882.59C402.594 883.615 404.702 884.128 407.14 884.128C408.758 884.128 410.239 883.9 411.584 883.444C412.928 882.989 414.079 882.305 415.036 881.393C415.993 880.481 416.723 879.365 417.224 878.043L430.692 878.932C430.008 882.168 428.607 884.994 426.487 887.41C424.391 889.803 421.679 891.672 418.352 893.017C415.048 894.339 411.231 895 406.901 895Z" fill="#081F3E"/>
<path d="M453.697 878.863L453.731 861.393H455.85L472.668 841.461H489.383L466.789 867.854H463.336L453.697 878.863ZM440.502 893.974V823.957H455.064V893.974H440.502ZM473.317 893.974L457.867 871.102L467.575 860.812L490.375 893.974H473.317Z" fill="#081F3E"/>
<path d="M524.455 841.461V852.401H492.836V841.461H524.455ZM500.014 828.88H514.576V877.837C514.576 879.182 514.781 880.231 515.191 880.983C515.601 881.712 516.171 882.225 516.9 882.521C517.652 882.818 518.518 882.966 519.498 882.966C520.182 882.966 520.865 882.909 521.549 882.795C522.233 882.658 522.757 882.555 523.121 882.487L525.412 893.325C524.682 893.553 523.657 893.815 522.335 894.111C521.014 894.43 519.407 894.624 517.516 894.692C514.006 894.829 510.93 894.362 508.286 893.291C505.666 892.219 503.626 890.555 502.168 888.299C500.709 886.043 499.991 883.194 500.014 879.752V828.88Z" fill="#081F3E"/>
<path d="M533.94 893.974V841.461H548.058V850.624H548.605C549.562 847.364 551.168 844.903 553.424 843.239C555.68 841.552 558.278 840.709 561.218 840.709C561.947 840.709 562.733 840.755 563.577 840.846C564.42 840.937 565.16 841.062 565.798 841.222V854.145C565.115 853.94 564.169 853.758 562.961 853.598C561.753 853.438 560.648 853.359 559.646 853.359C557.503 853.359 555.589 853.826 553.903 854.76C552.239 855.672 550.918 856.948 549.938 858.589C548.981 860.231 548.502 862.122 548.502 864.265V893.974H533.94Z" fill="#081F3E"/>
<path d="M594.606 895C589.296 895 584.704 893.872 580.83 891.615C576.979 889.336 574.005 886.168 571.909 882.111C569.812 878.031 568.764 873.302 568.764 867.923C568.764 862.498 569.812 857.758 571.909 853.701C574.005 849.621 576.979 846.453 580.83 844.196C584.704 841.917 589.296 840.777 594.606 840.777C599.915 840.777 604.496 841.917 608.347 844.196C612.221 846.453 615.206 849.621 617.303 853.701C619.4 857.758 620.448 862.498 620.448 867.923C620.448 873.302 619.4 878.031 617.303 882.111C615.206 886.168 612.221 889.336 608.347 891.615C604.496 893.872 599.915 895 594.606 895ZM594.674 883.718C597.09 883.718 599.106 883.034 600.724 881.667C602.342 880.276 603.562 878.385 604.382 875.991C605.225 873.598 605.647 870.875 605.647 867.82C605.647 864.766 605.225 862.042 604.382 859.649C603.562 857.256 602.342 855.364 600.724 853.974C599.106 852.584 597.09 851.889 594.674 851.889C592.236 851.889 590.185 852.584 588.521 853.974C586.881 855.364 585.639 857.256 584.795 859.649C583.975 862.042 583.565 864.766 583.565 867.82C583.565 870.875 583.975 873.598 584.795 875.991C585.639 878.385 586.881 880.276 588.521 881.667C590.185 883.034 592.236 883.718 594.674 883.718Z" fill="#081F3E"/>
<path d="M644.478 863.615V893.974H629.916V841.461H643.794V850.726H644.41C645.572 847.672 647.52 845.256 650.255 843.478C652.99 841.678 656.305 840.777 660.202 840.777C663.848 840.777 667.027 841.575 669.739 843.171C672.451 844.766 674.559 847.045 676.063 850.008C677.567 852.948 678.319 856.458 678.319 860.538V893.974H663.757V863.137C663.78 859.923 662.96 857.416 661.296 855.615C659.632 853.792 657.342 852.88 654.425 852.88C652.466 852.88 650.734 853.302 649.229 854.145C647.748 854.988 646.586 856.219 645.743 857.837C644.923 859.433 644.501 861.359 644.478 863.615Z" fill="#081F3E"/>
<path d="M689.796 893.974V841.461H704.357V893.974H689.796ZM697.111 834.692C694.946 834.692 693.089 833.974 691.539 832.538C690.012 831.079 689.249 829.336 689.249 827.307C689.249 825.302 690.012 823.581 691.539 822.145C693.089 820.686 694.946 819.957 697.111 819.957C699.276 819.957 701.122 820.686 702.648 822.145C704.198 823.581 704.973 825.302 704.973 827.307C704.973 829.336 704.198 831.079 702.648 832.538C701.122 833.974 699.276 834.692 697.111 834.692Z" fill="#081F3E"/>
<path d="M729.217 878.863L729.251 861.393H731.37L748.188 841.461H764.903L742.309 867.854H738.856L729.217 878.863ZM716.022 893.974V823.957H730.584V893.974H716.022ZM748.838 893.974L733.387 871.102L743.095 860.812L765.895 893.974H748.838Z" fill="#081F3E"/>
<path d="M787.019 894.966C783.67 894.966 780.684 894.385 778.064 893.222C775.443 892.037 773.369 890.293 771.842 887.991C770.338 885.667 769.586 882.772 769.586 879.308C769.586 876.39 770.122 873.94 771.193 871.957C772.264 869.974 773.722 868.379 775.568 867.171C777.414 865.963 779.511 865.051 781.858 864.436C784.228 863.82 786.712 863.387 789.31 863.137C792.363 862.817 794.824 862.521 796.693 862.248C798.562 861.951 799.918 861.518 800.761 860.948C801.604 860.379 802.026 859.535 802.026 858.419V858.213C802.026 856.048 801.342 854.373 799.975 853.188C798.63 852.003 796.716 851.41 794.232 851.41C791.611 851.41 789.526 851.991 787.977 853.154C786.427 854.293 785.401 855.729 784.9 857.461L771.432 856.367C772.116 853.176 773.46 850.418 775.466 848.094C777.471 845.746 780.058 843.945 783.225 842.692C786.416 841.416 790.107 840.777 794.3 840.777C797.217 840.777 800.009 841.119 802.675 841.803C805.364 842.487 807.745 843.547 809.819 844.983C811.916 846.418 813.568 848.265 814.776 850.521C815.983 852.755 816.587 855.433 816.587 858.555V893.974H802.778V886.692H802.367C801.524 888.333 800.396 889.781 798.983 891.034C797.57 892.265 795.873 893.234 793.89 893.94C791.908 894.624 789.617 894.966 787.019 894.966ZM791.19 884.914C793.332 884.914 795.223 884.493 796.864 883.649C798.505 882.783 799.792 881.621 800.727 880.162C801.661 878.704 802.128 877.051 802.128 875.205V869.632C801.672 869.929 801.046 870.202 800.248 870.453C799.473 870.681 798.596 870.897 797.616 871.102C796.636 871.285 795.656 871.456 794.676 871.615C793.696 871.752 792.808 871.877 792.01 871.991C790.301 872.242 788.808 872.641 787.532 873.188C786.256 873.735 785.265 874.476 784.558 875.41C783.852 876.322 783.499 877.461 783.499 878.829C783.499 880.812 784.216 882.328 785.652 883.376C787.111 884.402 788.956 884.914 791.19 884.914Z" fill="#081F3E"/>
</svg>
